<?xml version="1.0" encoding="UTF-8"?>
<svg xmlns="http://www.w3.org/2000/svg" version="1.1" xmlns:xlink="http://www.w3.org/1999/xlink" viewBox="0 0 509.5 84.3">
  <!-- Generator: Adobe Illustrator 29.3.0, SVG Export Plug-In . SVG Version: 2.1.0 Build 146)  -->
  <defs>
    <style>
      .st0 {
        fill: url(#Degradado_sin_nombre_61);
      }

      .st0, .st1, .st2, .st3, .st4, .st5, .st6, .st7, .st8, .st9, .st10, .st11, .st12 {
        isolation: isolate;
      }

      .st0, .st1, .st3, .st4, .st5, .st7, .st8, .st9, .st10, .st12 {
        mix-blend-mode: screen;
      }

      .st1 {
        fill: url(#Degradado_sin_nombre_6);
      }

      .st2 {
        fill: #66747b;
        font-size: 43.2px;
      }

      .st2, .st11 {
        font-family: NasalizationRg-Regular, Nasalization;
      }

      .st13 {
        fill: none;
      }

      .st3 {
        fill: url(#Degradado_sin_nombre_81);
      }

      .st14 {
        clip-path: url(#clippath-1);
      }

      .st4 {
        fill: url(#Degradado_sin_nombre_71);
      }

      .st15 {
        fill: url(#Degradado_sin_nombre_2);
      }

      .st5 {
        fill: url(#Degradado_sin_nombre_4);
      }

      .st7 {
        fill: url(#Degradado_sin_nombre_41);
      }

      .st16 {
        fill: url(#Degradado_sin_nombre_21);
      }

      .st17 {
        fill: url(#Degradado_sin_nombre_3);
      }

      .st8 {
        fill: url(#Degradado_sin_nombre_8);
      }

      .st9 {
        fill: url(#Degradado_sin_nombre_51);
      }

      .st10 {
        fill: url(#Degradado_sin_nombre_7);
      }

      .st11 {
        fill: #ce003d;
        font-size: 57.6px;
      }

      .st12 {
        fill: url(#Degradado_sin_nombre_5);
      }

      .st18 {
        clip-path: url(#clippath);
      }

      .st19 {
        fill: url(#Degradado_sin_nombre_31);
      }
    </style>
    <linearGradient id="Degradado_sin_nombre_2" data-name="Degradado sin nombre 2" x1="-1368.8" y1="30" x2="-1341.3" y2="30" gradientTransform="translate(486.2 1372.5) rotate(90)" gradientUnits="userSpaceOnUse">
      <stop offset="0" stop-color="#60003d"/>
      <stop offset="1" stop-color="#ce003d"/>
    </linearGradient>
    <linearGradient id="Degradado_sin_nombre_3" data-name="Degradado sin nombre 3" x1="-1368.8" y1="9" x2="-1291.4" y2="9" gradientTransform="translate(486.2 1372.5) rotate(90)" gradientUnits="userSpaceOnUse">
      <stop offset="0" stop-color="#81003d"/>
      <stop offset="0" stop-color="#8c003d"/>
      <stop offset=".4" stop-color="#9b003d"/>
      <stop offset=".6" stop-color="#a5003d"/>
      <stop offset="1" stop-color="#a8003d"/>
    </linearGradient>
    <linearGradient id="Degradado_sin_nombre_4" data-name="Degradado sin nombre 4" x1="-1367.8" y1="7.7" x2="-1293.9" y2="7.7" gradientTransform="translate(486.2 1372.5) rotate(90)" gradientUnits="userSpaceOnUse">
      <stop offset="0" stop-color="#000"/>
      <stop offset=".3" stop-color="#020202"/>
      <stop offset=".5" stop-color="#090909"/>
      <stop offset=".6" stop-color="#161616"/>
      <stop offset=".7" stop-color="#282828"/>
      <stop offset=".8" stop-color="#3f3f3f"/>
      <stop offset=".8" stop-color="#5c5c5c"/>
      <stop offset=".9" stop-color="#7f7f7f"/>
      <stop offset="1" stop-color="#a6a6a6"/>
      <stop offset="1" stop-color="#b5b5b5"/>
    </linearGradient>
    <clipPath id="clippath">
      <path class="st13" d="M500.4,40.2c-3.4,2.9-4.7,4.2-8.6,7.7-4.5-37.3-13.3-43.7-18.1-44.1h-19.2c11.5,1.5,16.3,28.5,18.2,44.4-4.8-3.5-6.7-4.8-10.5-7.4,9.8,14.9,16.3,28.8,21.3,40.5,7.4-15,12.6-28.6,17.1-40.9h-.2ZM490.9,50l1.5-1.4c2.4-2.2,3.9-3.5,5.5-4.9-3.9,10.7-8.5,22.2-14.6,34.8-4.4-10.1-9.8-21.7-17.6-34.1,1.7,1.2,3.5,2.5,6.2,4.4l1.9,1.4-.3-2.4c-3.3-27.5-9-38.9-14.3-43.1h14.3c10.8,1.1,15.6,30.5,17.1,43.1l.2,2h0Z"/>
    </clipPath>
    <radialGradient id="Degradado_sin_nombre_5" data-name="Degradado sin nombre 5" cx="-1349.5" cy="17.9" fx="-1349.5" fy="17.9" r="11.7" gradientTransform="translate(486.2 1372.5) rotate(90)" gradientUnits="userSpaceOnUse">
      <stop offset="0" stop-color="#b5b5b5"/>
      <stop offset="0" stop-color="#939393"/>
      <stop offset=".2" stop-color="#6c6c6c"/>
      <stop offset=".3" stop-color="#4b4b4b"/>
      <stop offset=".4" stop-color="#2f2f2f"/>
      <stop offset=".5" stop-color="#1a1a1a"/>
      <stop offset=".6" stop-color="#0b0b0b"/>
      <stop offset=".8" stop-color="#020202"/>
      <stop offset="1" stop-color="#000"/>
    </radialGradient>
    <radialGradient id="Degradado_sin_nombre_6" data-name="Degradado sin nombre 6" cx="721.2" cy="-3.6" fx="721.2" fy="-3.6" r="11.7" gradientTransform="translate(486.2 483) rotate(-90) scale(1 -1)" gradientUnits="userSpaceOnUse">
      <stop offset="0" stop-color="#b5b5b5"/>
      <stop offset="0" stop-color="#939393"/>
      <stop offset=".2" stop-color="#6c6c6c"/>
      <stop offset=".3" stop-color="#4b4b4b"/>
      <stop offset=".4" stop-color="#2f2f2f"/>
      <stop offset=".5" stop-color="#1a1a1a"/>
      <stop offset=".6" stop-color="#0b0b0b"/>
      <stop offset=".8" stop-color="#020202"/>
      <stop offset="1" stop-color="#000"/>
    </radialGradient>
    <radialGradient id="Degradado_sin_nombre_7" data-name="Degradado sin nombre 7" cx="751.1" cy="8.7" fx="751.1" fy="8.7" r="11.7" gradientTransform="translate(486.2 483) rotate(-90) scale(1 -1)" gradientUnits="userSpaceOnUse">
      <stop offset="0" stop-color="#b5b5b5"/>
      <stop offset="0" stop-color="#939393"/>
      <stop offset=".2" stop-color="#6c6c6c"/>
      <stop offset=".3" stop-color="#4b4b4b"/>
      <stop offset=".4" stop-color="#2f2f2f"/>
      <stop offset=".5" stop-color="#1a1a1a"/>
      <stop offset=".6" stop-color="#0b0b0b"/>
      <stop offset=".8" stop-color="#020202"/>
      <stop offset="1" stop-color="#000"/>
    </radialGradient>
    <radialGradient id="Degradado_sin_nombre_8" data-name="Degradado sin nombre 8" cx="687.8" cy="12" fx="687.8" fy="12" r="11.7" gradientTransform="translate(486.2 483) rotate(-90) scale(1 -1)" gradientUnits="userSpaceOnUse">
      <stop offset="0" stop-color="#b5b5b5"/>
      <stop offset="0" stop-color="#939393"/>
      <stop offset=".2" stop-color="#6c6c6c"/>
      <stop offset=".3" stop-color="#4b4b4b"/>
      <stop offset=".4" stop-color="#2f2f2f"/>
      <stop offset=".5" stop-color="#1a1a1a"/>
      <stop offset=".6" stop-color="#0b0b0b"/>
      <stop offset=".8" stop-color="#020202"/>
      <stop offset="1" stop-color="#000"/>
    </radialGradient>
    <linearGradient id="Degradado_sin_nombre_21" data-name="Degradado sin nombre 2" x1="-1368.8" y1="406.8" x2="-1341.3" y2="406.8" gradientTransform="translate(-356 1372.5) rotate(90) scale(1 -1)" xlink:href="#Degradado_sin_nombre_2"/>
    <linearGradient id="Degradado_sin_nombre_31" data-name="Degradado sin nombre 3" x1="-1368.8" y1="385.8" x2="-1291.4" y2="385.8" gradientTransform="translate(-356 1372.5) rotate(90) scale(1 -1)" xlink:href="#Degradado_sin_nombre_3"/>
    <linearGradient id="Degradado_sin_nombre_41" data-name="Degradado sin nombre 4" x1="-1367.8" y1="384.5" x2="-1293.9" y2="384.5" gradientTransform="translate(-356 1372.5) rotate(90) scale(1 -1)" xlink:href="#Degradado_sin_nombre_4"/>
    <clipPath id="clippath-1">
      <path class="st13" d="M6.5,40.2c4.5,12.4,9.8,25.9,17.1,40.9,5-11.7,11.5-25.6,21.3-40.5-3.8,2.6-5.7,3.9-10.5,7.4,1.9-15.9,6.7-42.8,18.2-44.4h-19.2c-4.8.5-13.6,6.8-18.1,44.1-3.9-3.5-5.2-4.7-8.6-7.7h-.2ZM16.1,49.9l.2-2c1.5-12.6,6.3-42,17.1-43.1h14.3c-5.3,4.2-11.1,15.6-14.3,43.1l-.3,2.4,1.9-1.4c2.7-1.9,4.5-3.3,6.2-4.4-7.7,12.4-13.2,24-17.6,34.1-6.1-12.6-10.7-24.1-14.6-34.8,1.6,1.4,3.1,2.7,5.5,4.9l1.5,1.4h0Z"/>
    </clipPath>
    <radialGradient id="Degradado_sin_nombre_51" data-name="Degradado sin nombre 5" cx="-1349.5" cy="394.7" fx="-1349.5" fy="394.7" gradientTransform="translate(-356 1372.5) rotate(90) scale(1 -1)" xlink:href="#Degradado_sin_nombre_5"/>
    <radialGradient id="Degradado_sin_nombre_61" data-name="Degradado sin nombre 6" cx="721.2" cy="373.2" fx="721.2" fy="373.2" gradientTransform="translate(-356 483) rotate(-90)" xlink:href="#Degradado_sin_nombre_6"/>
    <radialGradient id="Degradado_sin_nombre_71" data-name="Degradado sin nombre 7" cx="751.1" cy="385.5" fx="751.1" fy="385.5" gradientTransform="translate(-356 483) rotate(-90)" xlink:href="#Degradado_sin_nombre_7"/>
    <radialGradient id="Degradado_sin_nombre_81" data-name="Degradado sin nombre 8" cx="687.8" cy="388.8" fx="687.8" fy="388.8" gradientTransform="translate(-356 483) rotate(-90)" xlink:href="#Degradado_sin_nombre_8"/>
  </defs>
  <g class="st6">
    <g id="Capa_1">
      <g>
        <path class="st15" d="M473.6,3.7c-2.5.3-9.8,1.3-15.5,27.6-6.4,0-12.8,0-19.2-.2,1.5-6.7,6.1-26.9,15.4-27.3h19.3Z"/>
        <path class="st17" d="M483.3,81.1c-5-11.7-11.5-25.6-21.3-40.5,3.8,2.6,5.7,3.9,10.5,7.4-1.9-15.9-6.7-42.8-18.2-44.4h19.2c4.8.5,13.6,6.8,18.1,44,3.9-3.5,5.3-4.7,8.6-7.7-4.5,12.4-9.8,25.9-17.1,40.9h.2Z"/>
        <path class="st5" d="M497.9,43.7c-1.5,1.4-3,2.7-5.5,4.9l-1.5,1.4-.2-2c-1.5-12.6-6.3-42-17.1-43.2h-14.3c5.3,4.3,11.1,15.7,14.3,43.2l.3,2.4-1.9-1.4c-2.7-1.9-4.5-3.3-6.2-4.4,7.7,12.4,13.2,24,17.6,34.1,6.1-12.6,10.7-24.1,14.6-34.8h0Z"/>
        <g class="st18">
          <g>
            <path class="st12" d="M468.4,34.7c6.4,0,11.7-5.3,11.7-11.7s-5.3-11.7-11.7-11.7-11.7,5.3-11.7,11.7,5.3,11.7,11.7,11.7Z"/>
            <path class="st1" d="M489.8,49.3c6.4,0,11.7-5.3,11.7-11.7s-5.3-11.7-11.7-11.7-11.7,5.3-11.7,11.7,5.3,11.7,11.7,11.7Z"/>
            <path class="st10" d="M477.5,79.2c6.4,0,11.7-5.3,11.7-11.7s-5.3-11.7-11.7-11.7-11.7,5.3-11.7,11.7,5.3,11.7,11.7,11.7Z"/>
            <path class="st8" d="M474.3,15.8c6.4,0,11.7-5.3,11.7-11.7s-5.3-11.7-11.7-11.7-11.7,5.3-11.7,11.7,5.3,11.7,11.7,11.7Z"/>
          </g>
        </g>
      </g>
      <g>
        <path class="st16" d="M33.5,3.8h19.2c9.3.4,13.9,20.7,15.4,27.3-6.4,0-12.8.2-19.2.2-5.7-26.2-13-27.2-15.5-27.6h0Z"/>
        <path class="st19" d="M23.9,81c-7.4-15-12.6-28.6-17.1-40.9,3.3,2.9,4.7,4.2,8.6,7.7C19.9,10.5,28.7,4.2,33.5,3.7h19.2c-11.5,1.5-16.3,28.5-18.2,44.4,4.8-3.5,6.7-4.8,10.5-7.4-9.8,14.9-16.3,28.8-21.3,40.5h.2Z"/>
        <path class="st7" d="M9.1,43.8c3.9,10.7,8.5,22.2,14.6,34.8,4.4-10.1,9.8-21.7,17.6-34.1-1.7,1.2-3.5,2.5-6.2,4.4l-1.9,1.4.3-2.4c3.3-27.5,9-38.9,14.3-43.2h-14.3c-10.8,1.2-15.6,30.6-17.1,43.2l-.2,2-1.5-1.4c-2.5-2.2-3.9-3.5-5.5-4.9h0Z"/>
        <g class="st14">
          <g>
            <path class="st9" d="M50.3,23c0-6.4-5.3-11.7-11.7-11.7s-11.7,5.3-11.7,11.7,5.3,11.7,11.7,11.7,11.7-5.3,11.7-11.7Z"/>
            <path class="st0" d="M28.9,37.6c0-6.4-5.3-11.7-11.7-11.7s-11.7,5.3-11.7,11.7,5.3,11.7,11.7,11.7c6.4,0,11.7-5.3,11.7-11.7Z"/>
            <path class="st4" d="M41.2,67.5c0-6.4-5.3-11.7-11.7-11.7-6.4,0-11.7,5.3-11.7,11.7s5.3,11.7,11.7,11.7c6.4,0,11.7-5.3,11.7-11.7Z"/>
            <path class="st3" d="M44.4,4.1c0-6.4-5.3-11.7-11.7-11.7s-11.7,5.3-11.7,11.7,5.3,11.7,11.7,11.7,11.7-5.3,11.7-11.7Z"/>
          </g>
        </g>
      </g>
      <g class="st6">
        <text class="st2" transform="translate(98.8 33.2)"><tspan x="0" y="0">SELECT YOUR</tspan></text>
        <text class="st11" transform="translate(98.8 79.3)"><tspan x="0" y="0">BUSINESS</tspan></text>
      </g>
    </g>
  </g>
</svg>