<?xml version="1.0" encoding="UTF-8"?>
<svg id="Capa_1" xmlns="http://www.w3.org/2000/svg" version="1.1" xmlns:xlink="http://www.w3.org/1999/xlink" viewBox="0 0 1484.2 315.2">
  <!-- Generator: Adobe Illustrator 29.3.0, SVG Export Plug-In . SVG Version: 2.1.0 Build 146)  -->
  <defs>
    <style>
      .st0 {
        isolation: isolate;
      }

      .st1 {
        fill: #66747b;
      }

      .st2 {
        fill: #ce003d;
      }
    </style>
  </defs>
  <path class="st1" d="M373.7,313.4v-141.6c0-18.1,9-31.2,27.1-31.2s26.3,10.9,26.3,26.4-11.5,26.3-26.3,26.3-13.2-1.7-16-3.4v35.8c3.6,1.4,9.6,2.9,18.7,2.9,30.4,0,62-21,62-61.4s-26.8-61.9-63.9-61.9-62.4,19.3-62.4,57v151.1h34.5Z"/>
  <polygon class="st1" points="325.1 105.3 275.5 105.3 258.3 171.8 258 171.8 240.1 105.3 185 105.3 185 230.6 218.7 230.6 218.7 141.1 219.1 141.1 242.6 230.6 267.1 230.6 290 141.1 290.3 141.1 290.3 230.6 325.1 230.6 325.1 105.3"/>
  <polygon class="st1" points="90 12.8 7.4 59.9 89.3 107.1 171.9 60.5 90 12.8"/>
  <polygon class="st1" points="44.6 90.3 89.3 116.4 133.4 91.6 157 105.2 88.1 144.9 19.8 105.2 44.6 90.3"/>
  <polygon class="st1" points="55.8 133.8 88.7 153.7 122.3 134.4 145.2 148 88.7 181 31.6 148 55.8 133.8"/>
  <polygon class="st1" points="67 176 88.1 189.6 111.7 176 135.9 190.2 88.7 218.2 42.1 189.6 67 176"/>
  <polygon class="st1" points="73.2 216.9 88.1 225.6 104.9 216.9 129 230.6 89.3 254.2 50.9 231.2 73.2 216.9"/>
  <g class="st0">
    <path class="st2" d="M520.8,226.6l39.7-116.4h20.8l39.8,116.4h-17.9l-11.4-33.2h-41.7l-11.3,33.2h-18ZM570.8,125.7l-16.9,54.2h33.2l-16-54.2h-.3Z"/>
    <path class="st2" d="M666.6,156.6l11.4,6.8c8.1,4.8,13.5,8.6,16.4,11.6,5.4,5.5,8.1,12.4,8.1,20.4s-4,19.1-12,25c-7.5,5.4-17.5,8.2-30,8.2s-20.5-1.5-29.6-4.6v-17.5c10,5.8,20.3,8.6,30.9,8.6s11.3-1.3,15.2-3.9c4.7-3,7-7.5,7-13.3s-2-9.9-6.1-13.8c-2-1.9-6.3-4.8-12.8-8.7l-10.6-6.2c-8.8-5.2-14.3-8.8-16.6-11-5.8-5.4-8.6-11.9-8.6-19.7s3.7-17.5,11.1-22.8c6.8-4.8,16-7.2,27.5-7.2s17.8,1.1,26.4,3.4v15.9c-12.4-3.8-21.5-5.8-27.3-5.8s-10.5,1.3-13.9,4c-3.6,2.7-5.4,6.5-5.4,11.3s2.1,7.7,6.3,11.3c2,1.8,6.3,4.5,12.7,8.2Z"/>
    <path class="st2" d="M791.3,205.8v15.7c-10.3,4.6-20.5,6.9-30.6,6.9s-24.9-4.6-32.8-13.7c-9.1-10.4-13.6-26.4-13.6-47.8s3.1-31,9.3-40.9c7.4-11.9,19-17.8,34.8-17.8s20.9,3.2,27.6,9.5c6.5,6,9.8,14.1,9.8,24.3h-19.5c0-13.5-6.1-20.3-18.4-20.3s-25,14.2-25,42.5,10.4,50.6,31.2,50.6c8.2,0,17.2-3,27.2-9.1Z"/>
    <path class="st2" d="M810.8,226.6v-116.4h65.8v13.5h-48.9v35.6h45v13.5h-45v40.3h48.9v13.5h-65.8Z"/>
    <path class="st2" d="M895.1,226.6v-116.4h21.1l45.9,91.1h.3v-91.1h15.2v116.4h-19.8l-47.1-93.3h-.3v93.3h-15.2Z"/>
    <path class="st2" d="M1035.1,156.6l11.4,6.8c8.1,4.8,13.5,8.6,16.4,11.6,5.4,5.5,8.1,12.4,8.1,20.4s-4,19.1-12,25c-7.5,5.4-17.5,8.2-30,8.2s-20.5-1.5-29.6-4.6v-17.5c10,5.8,20.3,8.6,30.9,8.6s11.3-1.3,15.2-3.9c4.7-3,7-7.5,7-13.3s-2-9.9-6.1-13.8c-2-1.9-6.3-4.8-12.8-8.7l-10.6-6.2c-8.8-5.2-14.3-8.8-16.6-11-5.8-5.4-8.6-11.9-8.6-19.7s3.7-17.5,11.1-22.8c6.8-4.8,16-7.2,27.5-7.2s17.8,1.1,26.4,3.4v15.9c-12.4-3.8-21.5-5.8-27.3-5.8s-10.5,1.3-13.9,4c-3.6,2.7-5.4,6.5-5.4,11.3s2.1,7.7,6.3,11.3c2,1.8,6.3,4.5,12.7,8.2Z"/>
    <path class="st2" d="M1088.7,226.6v-116.4h65.8v13.5h-48.9v35.6h45v13.5h-45v40.3h48.9v13.5h-65.8Z"/>
    <path class="st2" d="M1250.6,110.2v81.9c0,12-3.8,21.2-11.3,27.5-7,5.9-16.4,8.8-28.3,8.8s-21.2-2.9-28.2-8.8c-7.5-6.3-11.2-15.5-11.2-27.5v-81.9h16.9v78.7c0,7.2.9,12.6,2.8,16.2,3.3,6.5,9.9,9.8,19.5,9.8s16.6-3.3,20-9.8c1.9-3.6,2.9-9,2.9-16.2v-78.7h16.9Z"/>
    <path class="st2" d="M1275.9,226.6v-116.4h33.7c10.1,0,18.1,2.3,23.9,6.8,6.8,5.2,10.2,13.1,10.2,23.8s-7.6,23.7-22.9,27.4v.3c7,1.5,12,4.7,15,9.6,1.6,2.7,3.3,8.1,5,16.1l6.9,32.4h-15.3l-7.1-25.8c-2.6-9.6-5-15.8-7.2-18.4-3.1-3.9-8.3-5.8-15.8-5.8h-9.6v50.1h-16.9ZM1292.8,123.7v39.3h9.7c6.9,0,12.4-1.4,16.6-4.3,5.1-3.5,7.7-8.8,7.7-16,0-12.7-6.8-19-20.4-19,0,0-13.6,0-13.6,0Z"/>
    <path class="st2" d="M1397.4,156.6l11.4,6.8c8.1,4.8,13.5,8.6,16.4,11.6,5.4,5.5,8.1,12.4,8.1,20.4s-4,19.1-12,25c-7.5,5.4-17.5,8.2-30,8.2s-20.5-1.5-29.6-4.6v-17.5c10,5.8,20.3,8.6,30.9,8.6s11.3-1.3,15.2-3.9c4.7-3,7-7.5,7-13.3s-2-9.9-6.1-13.8c-2-1.9-6.3-4.8-12.8-8.7l-10.6-6.2c-8.8-5.2-14.3-8.8-16.6-11-5.8-5.4-8.6-11.9-8.6-19.7s3.7-17.5,11.1-22.8c6.8-4.8,16-7.2,27.5-7.2s17.8,1.1,26.4,3.4v15.9c-12.4-3.8-21.5-5.8-27.3-5.8s-10.5,1.3-13.9,4c-3.6,2.7-5.4,6.5-5.4,11.3s2.1,7.7,6.3,11.3c2,1.8,6.3,4.5,12.7,8.2Z"/>
  </g>
</svg>