<?xml version="1.0" encoding="utf-8"?>
<!-- Generator: Adobe Illustrator 16.0.0, SVG Export Plug-In . SVG Version: 6.00 Build 0)  -->
<!DOCTYPE svg PUBLIC "-//W3C//DTD SVG 1.1//EN" "http://www.w3.org/Graphics/SVG/1.1/DTD/svg11.dtd">
<svg version="1.1" id="Capa_1" xmlns="http://www.w3.org/2000/svg" xmlns:xlink="http://www.w3.org/1999/xlink" x="0px" y="0px"
	 width="1484.226px" height="315.168px" viewBox="0 0 1484.226 315.168" enable-background="new 0 0 1484.226 315.168"
	 xml:space="preserve">
<g>
	<g>
		<path fill="#FFFFFF" d="M373.727,313.389l0.09-141.606c0-18.129,8.866-31.189,27.058-31.189c14.852,0,26.337,10.874,26.337,26.368
			c0,15.439-11.485,26.332-26.337,26.332c-8.376,0-13.166-1.695-16.038-3.377v35.777c3.586,1.435,9.577,2.89,18.671,2.89
			c30.409,0,62.027-21.021,62.027-61.401c0-35.298-26.827-61.875-63.934-61.875c-34.014,0-62.382,19.316-62.382,57.035v151.15
			L373.727,313.389z"/>
	</g>
	<polygon fill="#FFFFFF" points="325.088,105.286 275.523,105.286 258.345,171.799 257.971,171.799 240.068,105.286 
		184.999,105.286 184.999,230.641 218.69,230.641 218.69,141.111 219.054,141.111 242.632,230.641 267.115,230.641 289.959,141.111 
		290.32,141.111 290.32,230.641 325.088,230.641 	"/>
	<polygon fill="#FFFFFF" points="89.959,12.785 7.428,59.88 89.335,107.073 171.863,60.508 	"/>
	<polygon fill="#FFFFFF" points="44.629,90.317 89.338,116.369 133.406,91.566 156.967,105.224 88.079,144.917 19.822,105.224 	"/>
	<polygon fill="#FFFFFF" points="55.778,133.75 88.7,153.653 122.261,134.395 145.187,148.032 88.7,180.968 31.603,148.032 	"/>
	<polygon fill="#FFFFFF" points="67.034,175.958 88.093,189.593 111.736,175.958 135.915,190.239 88.7,218.165 42.131,189.593 	"/>
	<polygon fill="#FFFFFF" points="73.179,216.895 88.085,225.65 104.862,216.895 129.038,230.559 89.335,254.216 50.875,231.184 	"/>
	<g>
		<rect x="519.298" y="110.197" fill="none" width="972.356" height="217.757"/>
		<g enable-background="new    ">
			<path fill="#FFFFFF" d="M520.781,226.575l39.696-116.37h20.754l39.778,116.37h-17.871l-11.448-33.189h-41.672l-11.283,33.189
				H520.781z M570.771,125.688l-16.883,54.19h33.19l-15.978-54.19H570.771z"/>
			<path fill="#FFFFFF" d="M666.552,156.572L678,163.325c8.071,4.776,13.533,8.647,16.389,11.612
				c5.38,5.546,8.071,12.354,8.071,20.425c0,10.816-4.009,19.135-12.024,24.954c-7.467,5.436-17.459,8.153-29.978,8.153
				c-10.597,0-20.453-1.538-29.566-4.612v-17.542c9.992,5.765,20.287,8.647,30.884,8.647c6.204,0,11.255-1.289,15.154-3.871
				c4.666-3.019,7-7.466,7-13.342c0-5.324-2.032-9.909-6.095-13.753c-1.977-1.922-6.259-4.831-12.848-8.73l-10.624-6.177
				c-8.785-5.16-14.33-8.839-16.636-11.035c-5.765-5.381-8.647-11.942-8.647-19.684c0-9.937,3.706-17.542,11.118-22.813
				c6.807-4.831,15.977-7.248,27.507-7.248c9.004,0,17.816,1.126,26.437,3.377v15.895c-12.409-3.842-21.495-5.765-27.26-5.765
				c-5.876,0-10.515,1.317-13.918,3.953c-3.57,2.69-5.353,6.452-5.353,11.283c0,3.953,2.086,7.714,6.259,11.282
				C655.9,150.094,660.128,152.839,666.552,156.572z"/>
			<path fill="#FFFFFF" d="M791.322,205.821v15.73c-10.268,4.611-20.452,6.918-30.554,6.918c-13.946,0-24.872-4.557-32.778-13.672
				c-9.06-10.431-13.589-26.354-13.589-47.767c0-17.349,3.101-30.993,9.306-40.932c7.412-11.859,18.996-17.789,34.755-17.789
				c11.694,0,20.891,3.158,27.59,9.472c6.533,6.04,9.8,14.138,9.8,24.295h-19.519c0-13.507-6.123-20.26-18.365-20.26
				c-16.692,0-25.037,14.165-25.037,42.496c0,33.767,10.404,50.649,31.212,50.649C772.326,214.963,781.384,211.916,791.322,205.821z
				"/>
			<path fill="#FFFFFF" d="M810.759,226.575v-116.37h65.803v13.507h-48.92v35.578h44.967v13.506h-44.967v40.272h48.92v13.507
				H810.759z"/>
			<path fill="#FFFFFF" d="M895.092,226.575v-116.37h21.083l45.873,91.087h0.329v-91.087h15.153v116.37h-19.848l-47.108-93.311
				h-0.329v93.311H895.092z"/>
			<path fill="#FFFFFF" d="M1035.098,156.572l11.447,6.753c8.071,4.776,13.534,8.647,16.39,11.612
				c5.38,5.546,8.07,12.354,8.07,20.425c0,10.816-4.008,19.135-12.023,24.954c-7.468,5.436-17.46,8.153-29.979,8.153
				c-10.597,0-20.452-1.538-29.565-4.612v-17.542c9.992,5.765,20.286,8.647,30.884,8.647c6.203,0,11.254-1.289,15.153-3.871
				c4.666-3.019,7-7.466,7-13.342c0-5.324-2.031-9.909-6.094-13.753c-1.977-1.922-6.26-4.831-12.848-8.73l-10.624-6.177
				c-8.785-5.16-14.33-8.839-16.637-11.035c-5.765-5.381-8.647-11.942-8.647-19.684c0-9.937,3.706-17.542,11.118-22.813
				c6.808-4.831,15.978-7.248,27.508-7.248c9.004,0,17.815,1.126,26.437,3.377v15.895c-12.409-3.842-21.495-5.765-27.261-5.765
				c-5.875,0-10.515,1.317-13.918,3.953c-3.569,2.69-5.354,6.452-5.354,11.283c0,3.953,2.086,7.714,6.26,11.282
				C1024.446,150.094,1028.674,152.839,1035.098,156.572z"/>
			<path fill="#FFFFFF" d="M1088.713,226.575v-116.37h65.803v13.507h-48.92v35.578h44.967v13.506h-44.967v40.272h48.92v13.507
				H1088.713z"/>
			<path fill="#FFFFFF" d="M1250.626,110.205v81.945c0,12.023-3.762,21.193-11.283,27.507c-6.974,5.876-16.417,8.813-28.331,8.813
				c-11.859,0-21.248-2.937-28.166-8.813c-7.467-6.313-11.2-15.483-11.2-27.507v-81.945h16.883v78.733
				c0,7.193,0.934,12.601,2.801,16.224c3.348,6.535,9.854,9.801,19.519,9.801c9.937,0,16.607-3.266,20.013-9.801
				c1.921-3.623,2.882-9.03,2.882-16.224v-78.733H1250.626z"/>
			<path fill="#FFFFFF" d="M1275.91,226.575v-116.37h33.684c10.102,0,18.063,2.252,23.884,6.753
				c6.808,5.217,10.212,13.15,10.212,23.802c0,14.605-7.632,23.747-22.895,27.425v0.329c7.027,1.538,12.023,4.723,14.988,9.554
				c1.647,2.746,3.321,8.126,5.024,16.142l6.918,32.366h-15.318l-7.083-25.777c-2.636-9.607-5.023-15.758-7.165-18.448
				c-3.075-3.897-8.347-5.848-15.813-5.848h-9.554v50.073H1275.91z M1292.792,123.712v39.284h9.719
				c6.862,0,12.407-1.428,16.636-4.283c5.106-3.513,7.659-8.839,7.659-15.977c0-12.684-6.809-19.024-20.425-19.024H1292.792z"/>
			<path fill="#FFFFFF" d="M1397.386,156.572l11.447,6.753c8.071,4.776,13.534,8.647,16.39,11.612
				c5.38,5.546,8.07,12.354,8.07,20.425c0,10.816-4.008,19.135-12.023,24.954c-7.468,5.436-17.46,8.153-29.979,8.153
				c-10.597,0-20.452-1.538-29.565-4.612v-17.542c9.992,5.765,20.286,8.647,30.884,8.647c6.203,0,11.254-1.289,15.153-3.871
				c4.666-3.019,7-7.466,7-13.342c0-5.324-2.031-9.909-6.094-13.753c-1.977-1.922-6.26-4.831-12.848-8.73l-10.624-6.177
				c-8.785-5.16-14.33-8.839-16.637-11.035c-5.765-5.381-8.647-11.942-8.647-19.684c0-9.937,3.706-17.542,11.118-22.813
				c6.808-4.831,15.978-7.248,27.508-7.248c9.004,0,17.815,1.126,26.437,3.377v15.895c-12.409-3.842-21.495-5.765-27.261-5.765
				c-5.875,0-10.515,1.317-13.918,3.953c-3.569,2.69-5.354,6.452-5.354,11.283c0,3.953,2.086,7.714,6.26,11.282
				C1386.734,150.094,1390.962,152.839,1397.386,156.572z"/>
		</g>
	</g>
</g>
</svg>
