<?xml version="1.0" encoding="UTF-8"?>
<svg id="Capa_1" xmlns="http://www.w3.org/2000/svg" version="1.1" xmlns:xlink="http://www.w3.org/1999/xlink" viewBox="0 0 2057.8 351">
  <!-- Generator: Adobe Illustrator 29.3.0, SVG Export Plug-In . SVG Version: 2.1.0 Build 146)  -->
  <defs>
    <style>
      .st0 {
        fill: #66747b;
      }

      .st1 {
        fill: #ce003d;
      }
    </style>
  </defs>
  <path class="st0" d="M470.5,184.1c0,40.8-32,62.1-62.7,62.1s-15.2-1.5-18.9-2.9v-36.3c2.9,1.7,7.7,3.4,16.2,3.4,15,0,26.6-11,26.6-26.6s-11.6-26.6-26.6-26.6-27.4,13.2-27.4,31.5v143.2c-.1,0-35,.1-35,.1v-152.8c0-38.1,28.7-57.7,63.1-57.7s64.7,26.9,64.7,62.6Z"/>
  <polygon class="st0" points="261 188.7 260.6 188.7 242.5 121.5 186.8 121.5 186.8 248.2 220.9 248.2 220.9 157.7 221.3 157.7 245.1 248.2 269.9 248.2 293 157.7 293.4 157.7 293.4 248.2 328.5 248.2 328.5 121.5 278.4 121.5 261 188.7"/>
  <polygon class="st0" points="7.4 75.6 90.2 123.3 173.6 76.2 90.8 27.9 7.4 75.6"/>
  <polygon class="st0" points="90.2 132.7 45 106.3 19.9 121.4 88.9 161.5 158.5 121.4 134.7 107.6 90.2 132.7"/>
  <polygon class="st0" points="89.5 170.4 56.2 150.3 31.8 164.7 89.5 198 146.6 164.7 123.4 150.9 89.5 170.4"/>
  <polygon class="st0" points="88.9 206.7 67.6 192.9 42.4 206.7 89.5 235.6 137.2 207.4 112.8 193 88.9 206.7"/>
  <polygon class="st0" points="88.9 243.2 73.8 234.4 51.2 248.8 90.2 272 130.3 248.1 105.9 234.3 88.9 243.2"/>
  <polygon class="st1" points="545.6 121.5 527.2 121.5 527.2 248.2 594.2 248.2 594.2 233.5 545.6 233.5 545.6 121.5"/>
  <rect class="st1" x="608.8" y="121.5" width="18.4" height="126.7"/>
  <polygon class="st1" points="656.3 248.2 674.7 248.2 674.7 189.6 721.7 189.6 721.7 174.9 674.7 174.9 674.7 136.2 724.3 136.2 724.3 121.5 656.3 121.5 656.3 248.2"/>
  <polygon class="st1" points="726.6 136.2 758.2 136.2 758.2 248.2 776.6 248.2 776.6 136.2 808.2 136.2 808.2 121.5 726.7 121.5 726.7 136.2 726.6 136.2"/>
  <polygon class="st1" points="822.8 248.2 894.4 248.2 894.4 233.5 841.1 233.5 841.1 189.7 890.1 189.7 890.1 175 841.1 175 841.1 136.3 894.4 136.3 894.4 121.6 822.8 121.6 822.8 248.2"/>
  <polygon class="st1" points="987.9 220.7 987.5 220.7 937.6 121.5 914.6 121.5 914.6 248.2 931.1 248.2 931.1 146.6 931.5 146.6 982.8 248.2 1004.4 248.2 1004.4 121.5 987.9 121.5 987.9 220.7 987.9 220.7"/>
  <path class="st1" d="M1088,248.2h71.6v-14.7h-53.3v-43.8h49v-14.7h-49v-38.7h53.3v-14.7h-71.6v126.6ZM1245.9,207.2c0,7.8-1,13.7-3.1,17.7-3.7,7.1-11,10.7-21.8,10.7s-17.6-3.6-21.2-10.7c-2-3.9-3-9.8-3-17.7v-85.7h-18.4v89.2c0,13.1,4.1,23.1,12.2,30,7.5,6.4,17.8,9.6,30.7,9.6s23.3-3.2,30.8-9.6c8.2-6.9,12.3-16.9,12.3-30v-89.2h-18.4v85.7h0ZM1362.4,213l7.5,35.2h-16.7l-7.7-28.1c-2.9-10.5-5.5-17.2-7.8-20.1-3.3-4.2-9.1-6.4-17.2-6.4h-10.4v54.5h-18.4v-126.6h36.7c11,0,19.7,2.5,26,7.4,7.4,5.7,11.1,14.3,11.1,25.9s-8.3,25.9-24.9,29.9v.4c7.7,1.7,13.1,5.1,16.3,10.4,1.9,2.9,3.7,8.7,5.5,17.5ZM1338.9,174.3c5.6-3.8,8.3-9.6,8.3-17.4,0-13.8-7.4-20.7-22.2-20.7h-14.8v42.8h10.6c7.4,0,13.5-1.6,18.1-4.7ZM1483.3,184.8c0,43.6-16.5,65.5-49.6,65.5s-49.4-21.8-49.4-65.5,16.5-65.4,49.4-65.4,49.6,21.8,49.6,65.4ZM1463.1,184.8c0-33.8-9.8-50.7-29.4-50.7s-29.2,16.9-29.2,50.7,9.7,50.8,29.2,50.8,29.4-17,29.4-50.8ZM1581.1,157.4c0,13.6-5.1,23.4-15.2,29.5-6.9,4.1-15.2,6.2-24.9,6.2h-16.3v55.1h-18.4v-126.7h30.5c12.8,0,22.5,1.9,29.2,5.6,10.1,5.5,15.1,15.6,15.1,30.3ZM1561,157.4c0-8.8-2.7-14.8-8.1-18.1-3.5-2.1-8.5-3.1-15.2-3.1h-13v42.2h13c15.5,0,23.3-7,23.3-21ZM1650.8,121.5l43.3,126.7h-19.5l-12.5-36.1h-45.4l-12.3,36.1h-19.4l43.2-126.7h22.6ZM1657.2,197.4l-17.4-59h-.4l-18.4,59h36.2ZM1783,121.5h-18.4v126.7h67v-14.7h-48.6v-112ZM1846.1,248.2h18.4v-126.7h-18.4v126.7ZM1893.7,248.2h18.4v-58.6h47v-14.7h-47v-38.7h49.6v-14.7h-68v126.7ZM1964,121.5v14.7h31.6v112h18.4v-112h31.6v-14.7h-81.6Z"/>
  <rect class="st0" x="1044.3" y="97" width="4.7" height="175.7"/>
</svg>