<?xml version="1.0" encoding="utf-8"?>
<!-- Generator: Adobe Illustrator 28.2.0, SVG Export Plug-In . SVG Version: 6.00 Build 0)  -->
<svg version="1.1" id="Capa_1" xmlns="http://www.w3.org/2000/svg" xmlns:xlink="http://www.w3.org/1999/xlink" x="0px" y="0px"
	 viewBox="0 0 1003.8 351" style="enable-background:new 0 0 1003.8 351;" xml:space="preserve">
<style type="text/css">
	.st0{fill:#FFFFFF;}
</style>
<g>
	<path class="st0" d="M442.2,111.2c-37.8,0-69.4,21.5-69.4,63.4v168.1l38.4-0.1l0.1-157.5c0-20.2,9.9-34.7,30.1-34.7
		c16.5,0,29.3,12.1,29.3,29.3c0,17.2-12.8,29.3-29.3,29.3c-9.3,0-14.6-1.9-17.8-3.8v39.8c4,1.6,10.7,3.2,20.8,3.2
		c33.8,0,69-23.4,69-68.3C513.3,140.7,483.5,111.2,442.2,111.2z"/>
	<polygon class="st0" points="282.9,185.1 282.5,185.1 262.6,111.2 201.4,111.2 201.4,250.6 238.8,250.6 238.8,151 239.2,151 
		265.4,250.6 292.7,250.6 318.1,151 318.5,151 318.5,250.6 357.1,250.6 357.1,111.2 302,111.2 	"/>
	<polygon class="st0" points="3.9,60.7 95,113.2 186.8,61.4 95.7,8.3 	"/>
	<polygon class="st0" points="95,123.5 45.3,94.5 17.7,111.1 93.6,155.2 170.2,111.1 144,95.9 	"/>
	<polygon class="st0" points="94.3,165 57.7,142.8 30.8,158.7 94.3,195.3 157.1,158.7 131.6,143.5 	"/>
	<polygon class="st0" points="93.6,204.9 70.2,189.8 42.5,204.9 94.3,236.7 146.8,205.6 119.9,189.8 	"/>
	<polygon class="st0" points="93.6,245 77,235.3 52.2,251.2 95,276.8 139.1,250.5 112.3,235.3 	"/>
</g>
<g>
	<path class="st0" d="M575.7,250.5V111.2h20.2v123.2h53.5v16.2H575.7z"/>
	<path class="st0" d="M665.4,250.5V111.2h20.2v139.4H665.4z"/>
	<path class="st0" d="M717.7,250.5V111.2h74.8v16.2h-54.5V170h51.7v16.2h-51.7v64.4H717.7z"/>
	<path class="st0" d="M829.7,250.5V127.4H795v-16.2h89.7v16.2h-34.7v123.2H829.7z"/>
	<path class="st0" d="M937.6,166.7l13.7,8.1c9.7,5.7,16.2,10.4,19.6,13.9c6.4,6.6,9.7,14.8,9.7,24.5c0,13-4.8,22.9-14.4,29.9
		c-8.9,6.5-20.9,9.8-35.9,9.8c-12.7,0-24.5-1.8-35.4-5.5v-21c12,6.9,24.3,10.4,37,10.4c7.4,0,13.5-1.5,18.1-4.6
		c5.6-3.6,8.4-8.9,8.4-16c0-6.4-2.4-11.9-7.3-16.5c-2.4-2.3-7.5-5.8-15.4-10.5l-12.7-7.4c-10.5-6.2-17.2-10.6-19.9-13.2
		c-6.9-6.4-10.4-14.3-10.4-23.6c0-11.9,4.4-21,13.3-27.3c8.1-5.8,19.1-8.7,32.9-8.7c10.8,0,21.3,1.3,31.7,4v19
		c-14.9-4.6-25.7-6.9-32.6-6.9c-7,0-12.6,1.6-16.7,4.7c-4.3,3.2-6.4,7.7-6.4,13.5c0,4.7,2.5,9.2,7.5,13.5
		C924.8,159,929.9,162.2,937.6,166.7z"/>
</g>
</svg>
