<?xml version="1.0" encoding="utf-8"?>
<!-- Generator: Adobe Illustrator 27.5.0, SVG Export Plug-In . SVG Version: 6.00 Build 0)  -->
<svg version="1.1" id="Capa_1" xmlns="http://www.w3.org/2000/svg" xmlns:xlink="http://www.w3.org/1999/xlink" x="0px" y="0px"
	 width="2057.8px" height="351px" viewBox="0 0 2057.8 351" style="enable-background:new 0 0 2057.8 351;" xml:space="preserve">
<style type="text/css">
	.st0{fill:#FFFFFF;}
</style>
<path class="st0" d="M470.5,184.1c0,40.8-32,62.1-62.7,62.1c-9.2,0-15.2-1.5-18.9-2.9V207c2.9,1.7,7.7,3.4,16.2,3.4
	c15,0,26.6-11,26.6-26.6c0-15.6-11.6-26.6-26.6-26.6c-18.4,0-27.4,13.2-27.4,31.5l-0.1,143.2l-34.9,0.1V179.2
	c0-38.1,28.7-57.7,63.1-57.7C443.4,121.5,470.5,148.4,470.5,184.1z M261,188.7h-0.4l-18.1-67.2h-55.7v126.7h34.1v-90.5h0.4
	l23.8,90.5h24.8l23.1-90.5h0.4v90.5h35.1V121.5h-50.1L261,188.7z M7.4,75.6l82.8,47.7l83.4-47.1L90.8,27.9L7.4,75.6z M90.2,132.7
	L45,106.3l-25.1,15.1l69,40.1l69.6-40.1l-23.8-13.8L90.2,132.7z M89.5,170.4l-33.3-20.1l-24.4,14.4L89.5,198l57.1-33.3l-23.2-13.8
	L89.5,170.4z M88.9,206.7l-21.3-13.8l-25.2,13.8l47.1,28.9l47.7-28.2l-24.4-14.4L88.9,206.7z M88.9,243.2l-15.1-8.8l-22.6,14.4
	L90.2,272l40.1-23.9l-24.4-13.8L88.9,243.2z M545.6,121.5h-18.4v126.7h67v-14.7h-48.6V121.5z M608.8,248.2h18.4V121.5h-18.4V248.2z
	 M656.3,248.2h18.4v-58.6h47v-14.7h-47v-38.7h49.6v-14.7h-68V248.2z M726.6,136.2h31.6v112h18.4v-112h31.6v-14.7h-81.5V136.2z
	 M822.8,248.2h71.6v-14.7h-53.3v-43.8h49v-14.7h-49v-38.7h53.3v-14.7h-71.6V248.2z M987.9,220.7h-0.4l-49.9-99.2h-23v126.7h16.5
	V146.6h0.4l51.3,101.6h21.6V121.5h-16.5V220.7z M1088,248.2h71.6v-14.7h-53.3v-43.8h49v-14.7h-49v-38.7h53.3v-14.7H1088V248.2z
	 M1245.9,207.2c0,7.8-1,13.7-3.1,17.7c-3.7,7.1-11,10.7-21.8,10.7c-10.5,0-17.6-3.6-21.2-10.7c-2-3.9-3-9.8-3-17.7v-85.7h-18.4v89.2
	c0,13.1,4.1,23.1,12.2,30c7.5,6.4,17.8,9.6,30.7,9.6c13,0,23.3-3.2,30.8-9.6c8.2-6.9,12.3-16.9,12.3-30v-89.2h-18.4V207.2z
	 M1362.4,213l7.5,35.2h-16.7l-7.7-28.1c-2.9-10.5-5.5-17.2-7.8-20.1c-3.3-4.2-9.1-6.4-17.2-6.4h-10.4v54.5h-18.4V121.5h36.7
	c11,0,19.7,2.5,26,7.4c7.4,5.7,11.1,14.3,11.1,25.9c0,15.9-8.3,25.9-24.9,29.9v0.4c7.7,1.7,13.1,5.1,16.3,10.4
	C1358.8,198.4,1360.6,204.2,1362.4,213z M1338.9,174.3c5.6-3.8,8.3-9.6,8.3-17.4c0-13.8-7.4-20.7-22.2-20.7h-14.8V179h10.6
	C1328.2,179,1334.3,177.4,1338.9,174.3z M1483.3,184.8c0,43.6-16.5,65.5-49.6,65.5c-32.9,0-49.4-21.8-49.4-65.5
	c0-43.6,16.5-65.4,49.4-65.4C1466.8,119.4,1483.3,141.2,1483.3,184.8z M1463.1,184.8c0-33.8-9.8-50.7-29.4-50.7
	c-19.5,0-29.2,16.9-29.2,50.7c0,33.8,9.7,50.8,29.2,50.8C1453.3,235.6,1463.1,218.6,1463.1,184.8z M1581.1,157.4
	c0,13.6-5.1,23.4-15.2,29.5c-6.9,4.1-15.2,6.2-24.9,6.2h-16.3v55.1h-18.4V121.5h30.5c12.8,0,22.5,1.9,29.2,5.6
	C1576.1,132.6,1581.1,142.7,1581.1,157.4z M1561,157.4c0-8.8-2.7-14.8-8.1-18.1c-3.5-2.1-8.5-3.1-15.2-3.1h-13v42.2h13
	C1553.2,178.4,1561,171.4,1561,157.4z M1650.8,121.5l43.3,126.7h-19.5l-12.5-36.1h-45.4l-12.3,36.1H1585l43.2-126.7H1650.8z
	 M1657.2,197.4l-17.4-59h-0.4l-18.4,59H1657.2z M1783,121.5h-18.4v126.7h67v-14.7H1783V121.5z M1846.1,248.2h18.4V121.5h-18.4V248.2
	z M1893.7,248.2h18.4v-58.6h47v-14.7h-47v-38.7h49.6v-14.7h-68V248.2z M1964,121.5v14.7h31.6v112h18.4v-112h31.6v-14.7H1964z
	 M1044.3,272.7h4.7V97h-4.7V272.7z"/>
</svg>
