<?xml version="1.0" encoding="utf-8"?>
<!-- Generator: Adobe Illustrator 27.5.0, SVG Export Plug-In . SVG Version: 6.00 Build 0)  -->
<svg version="1.1" id="Capa_1" xmlns="http://www.w3.org/2000/svg" xmlns:xlink="http://www.w3.org/1999/xlink" x="0px" y="0px"
	 width="2094.7px" height="351px" viewBox="0 0 2094.7 351" style="enable-background:new 0 0 2094.7 351;" xml:space="preserve">
<style type="text/css">
	.st0{fill:#66747B;}
	.st1{fill:#CE003D;}
</style>
<polygon class="st0" points="77,-133.4 93.6,-123.6 112.3,-133.4 139.1,-118.2 95,-91.9 52.3,-117.5 "/>
<path class="st0" d="M487.5,173.8c0,41.3-32.4,62.9-63.5,62.9c-9.3,0-15.4-1.5-19.1-2.9v-36.8c2.9,1.7,7.8,3.4,16.4,3.4
	c15.2,0,26.9-11.1,26.9-26.9s-11.7-26.9-26.9-26.9c-18.6,0-27.7,13.4-27.7,31.9l-0.1,145l-35.3,0.1V168.8
	c0-38.6,29.1-58.4,63.9-58.4C460,110.4,487.5,137.6,487.5,173.8z"/>
<polygon class="st0" points="275.4,178.4 275,178.4 256.6,110.4 200.2,110.4 200.2,238.7 234.8,238.7 234.8,147 235.2,147 
	259.3,238.7 284.4,238.7 307.8,147 308.2,147 308.2,238.7 343.7,238.7 343.7,110.4 293,110.4 "/>
<polygon class="st0" points="18.6,63.9 102.4,112.2 186.9,64.5 103,15.6 "/>
<polygon class="st0" points="102.4,121.7 56.7,95 31.3,110.3 101.1,150.9 171.6,110.3 147.5,96.3 "/>
<polygon class="st0" points="101.7,159.9 68,139.5 43.3,154.1 101.7,187.8 159.5,154.1 136,140.1 "/>
<polygon class="st0" points="101.1,196.6 79.6,182.7 54,196.6 101.7,225.9 150,197.4 125.3,182.8 "/>
<polygon class="st0" points="101.1,233.6 85.8,224.7 62.9,239.3 102.4,262.8 143,238.6 118.3,224.6 "/>
<polygon class="st1" points="563.5,110.4 544.9,110.4 544.9,238.7 612.7,238.7 612.7,223.8 563.5,223.8 "/>
<rect x="627.5" y="110.4" class="st1" width="18.6" height="128.3"/>
<polygon class="st1" points="675.6,238.7 694.2,238.7 694.2,179.3 741.8,179.3 741.8,164.4 694.2,164.4 694.2,125.3 744.4,125.3 
	744.4,110.4 675.6,110.4 "/>
<polygon class="st1" points="746.8,125.3 778.7,125.3 778.7,238.7 797.4,238.7 797.4,125.3 829.4,125.3 829.4,110.4 746.9,110.4 
	746.9,125.3 "/>
<polygon class="st1" points="844.1,238.7 916.6,238.7 916.6,223.8 862.7,223.8 862.7,179.4 912.3,179.4 912.3,164.5 862.7,164.5 
	862.7,125.4 916.6,125.4 916.6,110.5 844.1,110.5 "/>
<polygon class="st1" points="1011.3,210.8 1010.9,210.8 960.4,110.4 937.1,110.4 937.1,238.7 953.8,238.7 953.8,135.8 954.2,135.8 
	1006.1,238.7 1028,238.7 1028,110.4 1011.3,110.4 1011.3,210.8 "/>
<polygon class="st1" points="1112.6,238.7 1185.1,238.7 1185.1,223.8 1131.2,223.8 1131.2,179.4 1180.8,179.4 1180.8,164.5 
	1131.2,164.5 1131.2,125.4 1185.1,125.4 1185.1,110.5 1112.6,110.5 "/>
<path class="st1" d="M1272.5,197.2c0,7.9-1,13.9-3.1,17.9c-3.7,7.2-11.1,10.8-22.1,10.8c-10.6,0-17.8-3.6-21.5-10.8
	c-2-3.9-3-9.9-3-17.9v-86.8h-18.6v90.3c0,13.3,4.2,23.4,12.4,30.4c7.6,6.5,18,9.7,31.1,9.7c13.2,0,23.6-3.2,31.2-9.7
	c8.3-7,12.5-17.1,12.5-30.4v-90.3h-18.6v86.8H1272.5z"/>
<path class="st1" d="M1390.5,203l7.6,35.6h-16.9l-7.8-28.4c-2.9-10.6-5.6-17.4-7.9-20.4c-3.3-4.3-9.2-6.5-17.4-6.5h-10.5v55.2h-18.6
	V110.4h37.2c11.1,0,19.9,2.5,26.3,7.5c7.5,5.8,11.2,14.5,11.2,26.2c0,16.1-8.4,26.2-25.2,30.3v0.4c7.8,1.7,13.3,5.2,16.5,10.5
	C1386.8,188.2,1388.6,194.1,1390.5,203z M1366.7,163.8c5.7-3.8,8.4-9.7,8.4-17.6c0-14-7.5-21-22.5-21h-15v43.3h10.7
	C1355.8,168.6,1362,167,1366.7,163.8z M1512.9,174.5c0,44.1-16.7,66.3-50.2,66.3c-33.3,0-50-22.1-50-66.3c0-44.1,16.7-66.2,50-66.2
	C1496.2,108.3,1512.9,130.3,1512.9,174.5z M1492.4,174.5c0-34.2-9.9-51.3-29.8-51.3c-19.7,0-29.6,17.1-29.6,51.3s9.8,51.4,29.6,51.4
	C1482.5,225.9,1492.4,208.7,1492.4,174.5z M1611.9,146.7c0,13.8-5.2,23.7-15.4,29.9c-7,4.2-15.4,6.3-25.2,6.3h-16.5v55.8h-18.6
	V110.4h30.9c13,0,22.8,1.9,29.6,5.7C1606.8,121.6,1611.9,131.8,1611.9,146.7z M1591.5,146.7c0-8.9-2.7-15-8.2-18.3
	c-3.5-2.1-8.6-3.1-15.4-3.1h-13.2V168h13.2C1583.6,168,1591.5,160.9,1591.5,146.7z M1682.5,110.4l43.8,128.3h-19.7l-12.7-36.5h-46
	l-12.5,36.5h-19.6l43.7-128.3L1682.5,110.4L1682.5,110.4z M1688.9,187.2l-17.6-59.7h-0.4l-18.6,59.7H1688.9z"/>
<polygon class="st1" points="1816.3,110.4 1797.7,110.4 1797.7,238.7 1865.5,238.7 1865.5,223.8 1816.3,223.8 "/>
<rect x="1880.2" y="110.4" class="st1" width="18.6" height="128.3"/>
<polygon class="st1" points="1928.4,238.7 1947,238.7 1947,179.3 1994.6,179.3 1994.6,164.4 1947,164.4 1947,125.3 1997.2,125.3 
	1997.2,110.4 1928.4,110.4 "/>
<polygon class="st1" points="1999.5,110.4 1999.5,125.3 2031.5,125.3 2031.5,238.7 2050.2,238.7 2050.2,125.3 2082.2,125.3 
	2082.2,110.4 "/>
<rect x="1068.4" y="85.6" class="st0" width="4.8" height="177.9"/>
</svg>
