<?xml version="1.0" encoding="UTF-8"?>
<svg id="Capa_1" xmlns="http://www.w3.org/2000/svg" version="1.1" xmlns:xlink="http://www.w3.org/1999/xlink" viewBox="0 0 408.7 315.2">
  <!-- Generator: Adobe Illustrator 29.3.0, SVG Export Plug-In . SVG Version: 2.1.0 Build 146)  -->
  <defs>
    <style>
      .st0 {
        stroke-width: 3px;
      }

      .st0, .st1 {
        fill: none;
        stroke: #66747b;
        stroke-miterlimit: 10;
      }

      .st1 {
        stroke-width: .5px;
      }

      .st2 {
        fill: #66747b;
      }
    </style>
  </defs>
  <g>
    <path class="st2" d="M377,93.7c.4-1.3,0-2.6-.9-3.6l-48.4-49.2c-.9-.9-2.3-1.3-3.6-1l-62.6,18c-4.8,1.4-8.6,4.9-10.4,9.6l-51.1,134.8c-.5,1.3-.2,2.9.8,3.9l2.2,2.2,73.3-72.1c-4.1-5.9-3.4-14.1,2.1-19.2s14.6-5.3,20.2,0c6.2,5.8,6.3,15.5.3,21.4s-13.2,5.6-18.9,1.5l-73.3,72.1,2.2,2.2c1,1,2.5,1.4,3.9.9l135.6-48.9c4.7-1.7,8.3-5.5,9.7-10.2l19-62.3Z"/>
    <polygon class="st2" points="381.9 88.8 408.7 70.1 347.7 8.1 328.6 34.6 381.9 88.8"/>
  </g>
  <path class="st0" d="M23.6,111.7s89.8,7.6,160.5,106c70.7,98.4,202,45.6,202,45.6"/>
  <circle class="st2" cx="23.6" cy="111.7" r="7.2"/>
  <circle class="st2" cx="386.2" cy="263.3" r="6.9"/>
  <circle class="st2" cx="234.1" cy="291.4" r="3.9"/>
  <rect class="st2" x="175" y="209" width="20.4" height="20.4" transform="translate(-90.1 138.2) rotate(-33.4)"/>
  <line class="st1" x1="234.5" y1="292.1" x2="137.4" y2="148.5"/>
  <circle class="st2" cx="137.8" cy="149.2" r="3.9"/>
</svg>